<svg width="24" height="24" viewBox="0 0 24 24" fill="none" xmlns="http://www.w3.org/2000/svg">
<path d="M11.25 22C10.7 22 10.146 21.9376 9.588 21.813C9.03 21.6883 8.459 21.509 7.875 21.275C8.075 19.2583 8.65833 17.375 9.625 15.625C10.5917 13.875 11.8333 12.3333 13.35 11C11.5167 11.9333 9.92933 13.1666 8.588 14.7C7.24667 16.2333 6.309 17.9833 5.775 19.95C5.70833 19.9 5.646 19.846 5.588 19.788L5.4 19.6C4.61667 18.8166 4.021 17.9416 3.613 16.975C3.205 16.0083 3.00067 15 3 13.95C3 12.8166 3.225 11.7333 3.675 10.7C4.125 9.66662 4.75 8.74995 5.55 7.94995C6.9 6.59995 8.65 5.72095 10.8 5.31295C12.95 4.90495 15.9667 4.86729 19.85 5.19995C20.15 9.18329 20.1 12.221 19.7 14.313C19.3 16.405 18.4333 18.1173 17.1 19.45C16.2833 20.2666 15.3707 20.896 14.362 21.338C13.3533 21.78 12.316 22.0006 11.25 22Z" fill="white"/>
</svg>
