<svg width="24" height="24" viewBox="0 0 24 24" fill="none" xmlns="http://www.w3.org/2000/svg">
<path fill-rule="evenodd" clip-rule="evenodd" d="M8.962 18.469C6.019 16.214 2 12.489 2 8.96698C2 3.08298 7.5 0.885975 12 5.42998C16.5 0.885975 22 3.08298 22 8.96698C22 12.489 17.98 16.214 15.038 18.469C13.706 19.489 13.04 20 12 20C10.96 20 10.294 19.49 8.962 18.469ZM16.5 6.24998C16.6989 6.24998 16.8897 6.32899 17.0303 6.46965C17.171 6.6103 17.25 6.80106 17.25 6.99998V8.24998H18.5C18.6989 8.24998 18.8897 8.32899 19.0303 8.46965C19.171 8.6103 19.25 8.80106 19.25 8.99998C19.25 9.19889 19.171 9.38965 19.0303 9.53031C18.8897 9.67096 18.6989 9.74998 18.5 9.74998H17.25V11C17.25 11.1989 17.171 11.3897 17.0303 11.5303C16.8897 11.671 16.6989 11.75 16.5 11.75C16.3011 11.75 16.1103 11.671 15.9697 11.5303C15.829 11.3897 15.75 11.1989 15.75 11V9.74998H14.5C14.3011 9.74998 14.1103 9.67096 13.9697 9.53031C13.829 9.38965 13.75 9.19889 13.75 8.99998C13.75 8.80106 13.829 8.6103 13.9697 8.46965C14.1103 8.32899 14.3011 8.24998 14.5 8.24998H15.75V6.99998C15.75 6.80106 15.829 6.6103 15.9697 6.46965C16.1103 6.32899 16.3011 6.24998 16.5 6.24998Z" fill="white"/>
</svg>
