<svg width="22" height="22" viewBox="0 0 22 22" fill="none" xmlns="http://www.w3.org/2000/svg">
<path fill-rule="evenodd" clip-rule="evenodd" d="M11.8281 14.663C12.7395 14.1359 13.5358 13.4311 14.1695 12.5902C13.9652 12.2726 13.8199 11.9207 13.7405 11.5515L13.7106 11.4132C13.625 11.0184 13.4234 10.6582 13.1317 10.3788C12.8399 10.0993 12.4713 9.91345 12.0732 9.84496C8.81721 9.27925 8.81721 4.60582 12.0732 4.03853C12.4578 3.97234 12.815 3.79657 13.1021 3.53232C13.3892 3.26807 13.594 2.92657 13.6918 2.54882C12.9261 1.71449 11.9892 1.05553 10.9451 0.617058C9.90106 0.178589 8.77456 -0.0290194 7.64279 0.00845408C6.51101 0.0459275 5.40071 0.327597 4.38794 0.834168C3.37517 1.34074 2.48387 2.06024 1.77508 2.94338C1.0663 3.82653 0.556789 4.85244 0.281451 5.95085C0.0061131 7.04927 -0.028544 8.19421 0.179854 9.30727C0.388252 10.4203 0.83478 11.4752 1.48885 12.3996C2.14292 13.324 2.98907 14.0961 3.96935 14.663V16.5C3.96935 16.9167 4.13491 17.3164 4.42961 17.6111C4.72431 17.9058 5.12401 18.0714 5.54078 18.0714H10.2551C10.6718 18.0714 11.0715 17.9058 11.3662 17.6111C11.6609 17.3164 11.8265 16.9167 11.8265 16.5L11.8281 14.663ZM3.97092 20.8214C3.97092 20.5088 4.09509 20.209 4.31612 19.988C4.53714 19.767 4.83692 19.6428 5.14949 19.6428H10.6495C10.9621 19.6428 11.2618 19.767 11.4829 19.988C11.7039 20.209 11.8281 20.5088 11.8281 20.8214C11.8281 21.134 11.7039 21.4337 11.4829 21.6548C11.2618 21.8758 10.9621 22 10.6495 22H5.14949C4.83692 22 4.53714 21.8758 4.31612 21.6548C4.09509 21.4337 3.97092 21.134 3.97092 20.8214ZM15.4109 2.6981C15.6985 1.38439 17.5685 1.37653 17.8671 2.6871L17.8812 2.74996L17.9095 2.87253C18.0791 3.59034 18.4555 4.24266 18.992 4.74876C19.5286 5.25486 20.2017 5.59252 20.9282 5.71996C22.2985 5.95882 22.2985 7.92625 20.9282 8.1651C20.1975 8.29311 19.5208 8.63376 18.9828 9.14443C18.4447 9.6551 18.0692 10.3131 17.9032 11.0361L17.8671 11.1964C17.5685 12.5085 15.6969 12.5007 15.4078 11.1854L15.3779 11.0487C15.2195 10.3229 14.8485 9.66072 14.3123 9.1466C13.7761 8.63248 13.0989 8.2897 12.3671 8.16196C10.9984 7.92468 10.9984 5.96039 12.3671 5.72153C13.0963 5.59472 13.7715 5.25436 14.3072 4.74356C14.8429 4.23276 15.215 3.5745 15.3763 2.8521L15.3999 2.74996L15.4109 2.6981Z" fill="white"/>
</svg>
